# xmcd
#
# Track frame offsets:
#	150
#	12918
#	25928
#	40601
#	55353
#	63812
#	78123
#	91274
#	112297
#	122418
#	133823
#	145554
#	159016
#	170158
#	181232
#	192733
#	204337
#	217133
#
# Disc length: 3072 seconds
#
# Revision: 1
# Processed by: cddbd v1.5.2PL0 Copyright (c) Steve Scherf et al.
# Submitted via: audiograbber 1.83.01
#
DISCID=f50bfe12
DTITLE=Gene Pitney - Backstage
DYEAR=2006
DGENRE=Ballad
TTITLE0=Only Love Can Breah A Heart
TTITLE1=Town Without Pity
TTITLE2=Looking Through The Eyes Of Love
TTITLE3=Yours Until Tomorrow
TTITLE4=I Wanna Love My Life Away
TTITLE5=Somewhere In The Country
TTITLE6=The Man Who Shot Liberty Valance
TTITLE7=Something's Gotten Hold Of My Heart
TTITLE8=I'm Gonna Be Strong
TTITLE9=It Hurts To Be In Love
TTITLE10=Backstage
TTITLE11=Shady Lady
TTITLE12=I Must Be Seeing Things
TTITLE13=If I Didn't Have A Dime
TTITLE14=Princess In Rags
TTITLE15=Just One Smile
TTITLE16=Town Without Pity - Bleib bei mir 
TTITLE17=Twenty Four Hours From Tulsa
EXTD=
EXTT0=
EXTT1=
EXTT2=
EXTT3=
EXTT4=
EXTT5=
EXTT6=
EXTT7=
EXTT8=
EXTT9=
EXTT10=
EXTT11=
EXTT12=
EXTT13=
EXTT14=
EXTT15=
EXTT16=
EXTT17=
PLAYORDER=
